<svg width="17" height="26" viewBox="0 0 17 26" fill="none" xmlns="http://www.w3.org/2000/svg">
<path d="M4.783 18.248C4.783 20.104 5.57233 21.032 7.151 21.032C8.879 21.032 10.0417 20.4347 10.639 19.24C10.8523 18.8133 10.959 18.2693 10.959 17.608C10.959 16.9253 10.799 16.296 10.479 15.72C9.94567 14.8027 9.02833 13.7893 7.727 12.68C5.57233 10.8453 4.495 8.94667 4.495 6.984C4.495 5 5.11367 3.47467 6.351 2.408C7.58833 1.34133 9.007 0.807999 10.607 0.807999C12.207 0.807999 13.4763 1.21333 14.415 2.024C15.3537 2.83467 15.823 4.05067 15.823 5.672C15.823 6.73867 15.4603 7.66667 14.735 8.456C14.031 9.24533 13.0923 9.736 11.919 9.928C12.4523 10.376 12.9857 10.8347 13.519 11.304C14.031 11.7733 14.5003 12.2853 14.927 12.84C15.8657 14.0987 16.335 15.6027 16.335 17.352C16.335 18.568 16.047 19.6667 15.471 20.648C14.9163 21.6293 14.1803 22.4613 13.263 23.144C12.367 23.8053 11.3537 24.3173 10.223 24.68C9.09233 25.0427 8.03633 25.224 7.055 25.224C4.96433 25.224 3.343 24.744 2.191 23.784C0.847 22.696 0.175 21.128 0.175 19.08C0.175 17.736 0.612333 16.4347 1.487 15.176C2.36167 13.9173 3.28967 13.288 4.271 13.288C5.039 13.288 5.423 13.5227 5.423 13.992C5.423 14.6747 5.31633 15.3573 5.103 16.04C4.88967 16.7013 4.783 17.4373 4.783 18.248ZM10.991 9.16C12.207 7.944 12.815 6.67467 12.815 5.352C12.815 4.94667 12.6017 4.60533 12.175 4.328C11.7057 4.072 11.215 3.944 10.703 3.944C9.551 3.944 8.719 4.31733 8.207 5.064C8.463 5.98133 8.83633 6.76 9.327 7.4C9.839 8.04 10.3937 8.62667 10.991 9.16Z" fill="#339FCD"/>
</svg>
